<svg width="100%" viewBox="0 0 680 400" xmlns="http://www.w3.org/2000/svg">

  <rect x="180" y="240" width="320" height="140" rx="4" fill="#1d4ed8"/>
  <rect x="180" y="150" width="320" height="96" fill="#2563eb"/>
  <rect x="180" y="80" width="320" height="76" fill="#3b82f6"/>
  <polygon points="155,80 340,20 525,80" fill="#1e40af"/>

  <rect x="290" y="30" width="100" height="22" rx="4" fill="#f59e0b"/>
  <text x="340" y="46" text-anchor="middle" font-family="sans-serif" font-size="11" font-weight="700" fill="#78350f">STAYNEST HMS</text>

  <rect x="200" y="98" width="36" height="32" rx="3" fill="#93c5fd"/>
  <line x1="218" y1="98" x2="218" y2="130" stroke="#60a5fa" stroke-width="1"/>
  <line x1="200" y1="114" x2="236" y2="114" stroke="#60a5fa" stroke-width="1"/>
  <rect x="258" y="98" width="36" height="32" rx="3" fill="#93c5fd"/>
  <line x1="276" y1="98" x2="276" y2="130" stroke="#60a5fa" stroke-width="1"/>
  <line x1="258" y1="114" x2="294" y2="114" stroke="#60a5fa" stroke-width="1"/>
  <rect x="322" y="98" width="36" height="32" rx="3" fill="#93c5fd"/>
  <line x1="340" y1="98" x2="340" y2="130" stroke="#60a5fa" stroke-width="1"/>
  <line x1="322" y1="114" x2="358" y2="114" stroke="#60a5fa" stroke-width="1"/>
  <rect x="386" y="98" width="36" height="32" rx="3" fill="#93c5fd"/>
  <line x1="404" y1="98" x2="404" y2="130" stroke="#60a5fa" stroke-width="1"/>
  <line x1="386" y1="114" x2="422" y2="114" stroke="#60a5fa" stroke-width="1"/>
  <rect x="444" y="98" width="36" height="32" rx="3" fill="#93c5fd"/>
  <line x1="462" y1="98" x2="462" y2="130" stroke="#60a5fa" stroke-width="1"/>
  <line x1="444" y1="114" x2="480" y2="114" stroke="#60a5fa" stroke-width="1"/>

  <rect x="200" y="170" width="36" height="32" rx="3" fill="#bfdbfe"/>
  <line x1="218" y1="170" x2="218" y2="202" stroke="#93c5fd" stroke-width="1"/>
  <line x1="200" y1="186" x2="236" y2="186" stroke="#93c5fd" stroke-width="1"/>
  <rect x="258" y="170" width="36" height="32" rx="3" fill="#bfdbfe"/>
  <line x1="276" y1="170" x2="276" y2="202" stroke="#93c5fd" stroke-width="1"/>
  <line x1="258" y1="186" x2="294" y2="186" stroke="#93c5fd" stroke-width="1"/>
  <rect x="322" y="170" width="36" height="32" rx="3" fill="#bfdbfe"/>
  <line x1="340" y1="170" x2="340" y2="202" stroke="#93c5fd" stroke-width="1"/>
  <line x1="322" y1="186" x2="358" y2="186" stroke="#93c5fd" stroke-width="1"/>
  <rect x="386" y="170" width="36" height="32" rx="3" fill="#bfdbfe"/>
  <line x1="404" y1="170" x2="404" y2="202" stroke="#93c5fd" stroke-width="1"/>
  <line x1="386" y1="186" x2="422" y2="186" stroke="#93c5fd" stroke-width="1"/>
  <rect x="444" y="170" width="36" height="32" rx="3" fill="#bfdbfe"/>
  <line x1="462" y1="170" x2="462" y2="202" stroke="#93c5fd" stroke-width="1"/>
  <line x1="444" y1="186" x2="480" y2="186" stroke="#93c5fd" stroke-width="1"/>

  <rect x="200" y="258" width="36" height="32" rx="3" fill="#dbeafe"/>
  <line x1="218" y1="258" x2="218" y2="290" stroke="#bfdbfe" stroke-width="1"/>
  <line x1="200" y1="274" x2="236" y2="274" stroke="#bfdbfe" stroke-width="1"/>
  <rect x="258" y="258" width="36" height="32" rx="3" fill="#dbeafe"/>
  <line x1="276" y1="258" x2="276" y2="290" stroke="#bfdbfe" stroke-width="1"/>
  <line x1="258" y1="274" x2="294" y2="274" stroke="#bfdbfe" stroke-width="1"/>
  <rect x="386" y="258" width="36" height="32" rx="3" fill="#dbeafe"/>
  <line x1="404" y1="258" x2="404" y2="290" stroke="#bfdbfe" stroke-width="1"/>
  <line x1="386" y1="274" x2="422" y2="274" stroke="#bfdbfe" stroke-width="1"/>
  <rect x="444" y="258" width="36" height="32" rx="3" fill="#dbeafe"/>
  <line x1="462" y1="258" x2="462" y2="290" stroke="#bfdbfe" stroke-width="1"/>
  <line x1="444" y1="274" x2="480" y2="274" stroke="#bfdbfe" stroke-width="1"/>

  <rect x="305" y="312" width="70" height="68" rx="4" fill="#1e3a8a"/>
  <rect x="315" y="318" width="22" height="26" rx="2" fill="#60a5fa"/>
  <rect x="343" y="318" width="22" height="26" rx="2" fill="#60a5fa"/>
  <circle cx="337" cy="340" r="3" fill="#f59e0b"/>

  <rect x="230" y="316" width="50" height="18" rx="3" fill="#1e40af"/>
  <text x="255" y="329" text-anchor="middle" font-family="sans-serif" font-size="10" fill="#bfdbfe">HOSTEL</text>

  <rect x="150" y="370" width="380" height="10" rx="3" fill="#1e3a8a"/>

  <rect x="100" y="290" width="56" height="90" rx="3" fill="#e2e8f0"/>
  <rect x="114" y="300" width="12" height="14" rx="2" fill="#93c5fd"/>
  <rect x="130" y="300" width="12" height="14" rx="2" fill="#93c5fd"/>
  <rect x="114" y="322" width="12" height="14" rx="2" fill="#93c5fd"/>
  <rect x="130" y="322" width="12" height="14" rx="2" fill="#93c5fd"/>
  <rect x="119" y="348" width="18" height="32" rx="2" fill="#cbd5e1"/>

  <rect x="524" y="300" width="56" height="80" rx="3" fill="#e2e8f0"/>
  <rect x="538" y="310" width="12" height="14" rx="2" fill="#93c5fd"/>
  <rect x="554" y="310" width="12" height="14" rx="2" fill="#93c5fd"/>
  <rect x="538" y="332" width="12" height="14" rx="2" fill="#93c5fd"/>
  <rect x="554" y="332" width="12" height="14" rx="2" fill="#93c5fd"/>
  <rect x="543" y="355" width="18" height="25" rx="2" fill="#cbd5e1"/>

  <ellipse cx="130" cy="270" rx="20" ry="22" fill="#16a34a"/>
  <ellipse cx="112" cy="282" rx="14" ry="16" fill="#15803d"/>
  <ellipse cx="148" cy="278" rx="12" ry="14" fill="#16a34a"/>
  <rect x="127" y="290" width="6" height="10" fill="#78350f"/>

  <ellipse cx="560" cy="278" rx="20" ry="22" fill="#16a34a"/>
  <ellipse cx="542" cy="288" rx="14" ry="16" fill="#15803d"/>
  <ellipse cx="576" cy="284" rx="12" ry="14" fill="#16a34a"/>
  <rect x="557" y="295" width="6" height="10" fill="#78350f"/>

  <rect x="50" y="374" width="580" height="6" rx="3" fill="#94a3b8"/>

</svg>